<?xml version="1.0" encoding="iso-8859-1"?>
<!-- Uploaded to: SVG Repo, www.svgrepo.com, Generator: SVG Repo Mixer Tools -->
<svg height="800px" width="800px" version="1.1" id="Layer_1" xmlns="http://www.w3.org/2000/svg" xmlns:xlink="http://www.w3.org/1999/xlink" 
	 viewBox="0 0 511.999 511.999" xml:space="preserve">
<circle style="fill:#FEE187;" cx="255.997" cy="255.997" r="167.991"/>
<g>
	<path style="fill:#FFC61B;" d="M255.999,0c-7.664,0-13.877,6.214-13.877,13.877s6.213,13.877,13.877,13.877
		c57.945,0,110.905,21.716,151.199,57.422l-32.781,32.782c-32.95-28.356-74.49-43.825-118.418-43.825
		c-45.156,0-86.517,16.549-118.35,43.892L95.045,75.42c-0.078-0.078-0.162-0.143-0.24-0.216c-0.069-0.072-0.129-0.15-0.2-0.221
		c-5.417-5.417-14.206-5.417-19.624,0C26.629,123.333,0,187.621,0,255.999c0,141.159,114.84,255.999,255.999,255.999
		c68.379,0,132.666-26.628,181.018-74.981c48.352-48.35,74.981-112.638,74.981-181.018C511.999,114.842,397.158,0,255.999,0z
		 M365.043,147.093c5.416,5.423,14.201,5.43,19.624,0.012c0.402-0.402,0.765-0.827,1.107-1.263c0.029-0.029,0.062-0.054,0.092-0.083
		l40.957-40.958c32.834,37.053,53.823,84.82,56.987,137.322h-15.439c-7.664,0-13.877,6.214-13.877,13.877
		s6.213,13.877,13.877,13.877h15.443c-3.047,51.145-22.903,99.084-56.914,137.402l-32.928-32.929
		c27.344-31.833,43.892-73.192,43.892-118.35c0-7.663-6.213-13.877-13.877-13.877s-13.877,6.214-13.877,13.877
		c0,84.978-69.135,154.114-154.114,154.114s-154.114-69.135-154.114-154.114s69.135-154.114,154.114-154.114
		C297.201,101.887,335.926,117.94,365.043,147.093z M255.999,453.157c-7.664,0-13.877,6.214-13.877,13.877v16.778
		c-52.502-3.165-100.269-24.154-137.322-56.987l32.849-32.85c31.833,27.344,73.192,43.892,118.35,43.892
		s86.517-16.549,118.35-43.892l32.928,32.928c-38.32,34.01-86.259,53.866-137.401,56.914v-16.784
		C269.876,459.37,263.663,453.157,255.999,453.157z M28.188,269.876h46.47c3.011,39.73,18.85,75.932,43.367,104.473l-32.849,32.85
		C52.343,370.146,31.353,322.38,28.188,269.876z M85.097,104.722l32.928,32.928c-24.517,28.542-40.355,64.743-43.367,104.473H28.183
		C31.231,190.979,51.087,143.041,85.097,104.722z"/>
	<path style="fill:#FFC61B;" d="M333.33,286.048h-9.623c-2.829,0-5.198,2.217-5.392,5.048c-0.554,8.079-6.107,14.41-12.644,14.41
		h-8.542c-6.997,0-12.69-7.063-12.69-15.744v-24.963c0-8.681,5.692-15.744,12.69-15.744h8.542c6.536,0,12.091,6.331,12.644,14.41
		c0.194,2.831,2.563,5.048,5.392,5.048h9.623c1.497,0,2.891-0.598,3.919-1.68c1.019-1.07,1.561-2.53,1.489-4.008
		c-0.949-19.176-15.474-34.198-33.068-34.198h-8.542c-18.26,0-33.117,16.226-33.117,36.171v24.963
		c0,19.945,14.856,36.171,33.117,36.171h8.542c17.594,0,32.119-15.02,33.068-34.199c0.072-1.475-0.47-2.934-1.488-4.006
		C336.219,286.645,334.826,286.048,333.33,286.048z"/>
	<path style="fill:#FFC61B;" d="M245.675,325.932c-1.114,0-2.195-0.476-2.967-1.303l-44.423-47.777v44.835
		c0,2.342-1.85,4.246-4.123,4.246h-16.785c-2.273,0-4.123-1.904-4.123-4.246V190.302c0-2.335,1.85-4.234,4.123-4.234h16.785
		c2.273,0,4.123,1.898,4.123,4.234v53.44l38.993-51.124c0.772-1.019,1.982-1.625,3.24-1.625h20.848c1.528,0,2.927,0.866,3.65,2.26
		c0.772,1.483,0.604,3.304-0.429,4.64l-48.038,62.036l52.053,58.906c1.13,1.291,1.39,3.146,0.662,4.721
		c-0.692,1.435-2.154,2.376-3.713,2.376H245.675L245.675,325.932z"/>
	<path style="fill:#FFC61B;" d="M321.901,192.394c-0.754-1.414-2.217-2.291-3.82-2.291h-8.716c-1.506,0-2.881,0.766-3.677,2.048
		l-4.243,6.827l-4.245-6.827c-0.797-1.282-2.172-2.048-3.679-2.048h-8.848c-1.585,0-3.043,0.869-3.802,2.262
		c-0.773,1.408-0.701,3.121,0.193,4.478l12.56,18.904c0.809,1.192,2.155,1.905,3.6,1.905h8.448c1.461,0,2.813-0.729,3.62-1.952
		l12.407-18.868C322.584,195.494,322.659,193.789,321.901,192.394z"/>
</g>
</svg>